<?xml version="1.0" encoding="UTF-8"?>
<svg id="Layer_2" data-name="Layer 2" xmlns="http://www.w3.org/2000/svg" width="30.96" height="12.86" viewBox="0 0 30.96 12.86">
  <defs>
    <style>
      .cls-1 {
        fill: #fff;
      }
    </style>
  </defs>
  <g id="Camada_1" data-name="Camada 1">
    <g>
      <path class="cls-1" d="m10.06,10.26c0-1.43-1.17-2.6-2.6-2.6s-2.6,1.17-2.6,2.6,1.17,2.6,2.6,2.6,2.6-1.17,2.6-2.6Zm-4.42,0c0-1,.81-1.82,1.82-1.82s1.82.81,1.82,1.82-.81,1.82-1.82,1.82-1.82-.81-1.82-1.82Z"/>
      <circle class="cls-1" cx="7.46" cy="10.26" r=".94"/>
      <path class="cls-1" d="m26.96,10.26c0-1.43-1.17-2.6-2.6-2.6s-2.6,1.17-2.6,2.6,1.17,2.6,2.6,2.6,2.6-1.17,2.6-2.6Zm-4.42,0c0-1,.81-1.82,1.82-1.82s1.82.81,1.82,1.82-.81,1.82-1.82,1.82-1.82-.81-1.82-1.82Z"/>
      <circle class="cls-1" cx="24.36" cy="10.26" r=".94"/>
      <rect class="cls-1" x="9.94" y="4.45" width="1.59" height=".5"/>
      <rect class="cls-1" x="15.97" y="4.45" width="1.59" height=".5"/>
      <path class="cls-1" d="m29.36,4.08c-.06-.06-.14-.09-.23-.1l-7.47-.7L18.65.12c-.07-.08-.18-.12-.28-.12h-8.35c-.09,0-.17.03-.24.08l-4.49,3.56H1.59c-.14,0-.27.08-.34.2L.05,5.94c-.05.09-.06.2-.04.29l.84,3.15c.05.17.2.29.38.29h2.9c.17,0,.33-.11.38-.28.38-1.31,1.6-2.22,2.96-2.22,1.7,0,3.08,1.38,3.08,3.08,0,.11,0,.22-.02.33-.01.11.02.22.1.3.07.08.18.13.29.13h9.99c.22,0,.39-.18.39-.39,0-.02,0-.05,0-.07,0-.1-.01-.2-.01-.3,0-1.7,1.38-3.08,3.08-3.08,1.37,0,2.59.92,2.96,2.23.05.17.2.28.38.28h1.91c.18,0,.33-.12.38-.29l.96-3.61c.04-.14,0-.29-.12-.39l-1.46-1.33Zm-27.55.35h3.61c.09,0,.17-.03.24-.08L10.16.78h8.05l3,3.14c.07.07.15.11.25.12l7.49.71.8.72H1.22l.59-1.04Zm27.49,4.48h-1.32c-.56-1.5-2.01-2.52-3.62-2.52-2.12,0-3.85,1.72-3.87,3.84h-9.17c-.01-2.12-1.74-3.84-3.87-3.84-1.6,0-3.05,1.01-3.62,2.5H1.53l-.7-2.65h29.19l-.71,2.66Z"/>
      <polygon class="cls-1" points="14.47 1.38 14.47 3.8 19.88 3.8 17.83 1.38 14.47 1.38"/>
      <polygon class="cls-1" points="7.76 3.8 13.76 3.8 13.76 1.38 10.46 1.38 7.76 3.8"/>
    </g>
  </g>
</svg>