<?xml version="1.0" encoding="UTF-8"?>
<svg id="Layer_2" data-name="Layer 2" xmlns="http://www.w3.org/2000/svg" width="19.43" height="13.29" viewBox="0 0 19.43 13.29">
  <defs>
    <style>
      .cls-1 {
        fill: #fff;
      }
    </style>
  </defs>
  <g id="Camada_1" data-name="Camada 1">
    <path class="cls-1" d="m15.74,5.79c-.35,0-.68.05-1,.14l-1.4-3.79,1.2-.26c.11-.02.2-.11.24-.22.04-.11.02-.23-.06-.32L13.72.12c-.12-.14-.32-.16-.46-.04-.14.12-.16.33-.04.47l.66.8-1.04.22c-.09.02-.17.08-.22.17-.05.09-.05.19-.02.28l.55,1.49h-5.92v-.92s0-.06-.01-.09c.17-.07.41-.12.7-.12h.8s-.18-.34-.4-.39l-1.4.02h-.41s-.11,0-.11,0c-.98.04-1.37-.29-1.37-.29,0,0-.14.07.04.31,0,0,.74.91,1.51.76v.93l-1.33,2.36c-.47-.23-1-.35-1.56-.35-2.03,0-3.68,1.68-3.68,3.75s1.65,3.75,3.68,3.75c1.42,0,2.65-.82,3.27-2.02.62.15,1.19.28,1.57.32.06,0,.12.01.18.01.37,0,.72-.14,1.01-.4.39-.35.62-.88.62-1.41,0-.34-.09-.67-.26-.96l3.62-3.8.44,1.19c-1.23.61-2.07,1.89-2.07,3.37,0,2.07,1.65,3.75,3.68,3.75s3.68-1.68,3.68-3.75-1.65-3.75-3.68-3.75Zm-8.96-1.1l.9,3.35c-.18.03-.37.06-.56.09-.26-.69-.72-1.28-1.31-1.71l.98-1.74Zm-.07,4.79c0,.33-.05.64-.14.94-.82-.21-1.67-.45-2.21-.61.04-.08.06-.18.06-.28,0-.07-.01-.14-.03-.21.56-.11,1.44-.29,2.28-.44.04.19.06.39.06.59Zm-2.14-.88l.9-1.6c.42.32.76.75.98,1.24-.67.12-1.36.25-1.88.36Zm-.89,3.96c-1.67,0-3.03-1.38-3.03-3.08s1.36-3.08,3.03-3.08c.44,0,.85.1,1.23.27l-1.19,2.11s-.06.01-.07.01c-.05.01-.1.04-.14.07-.28.09-.49.36-.49.67,0,.29.17.54.42.65.04.05.09.08.15.1.09.03,1.4.41,2.7.75-.53.91-1.5,1.52-2.61,1.52Zm5.99-2.83c0,.34-.15.68-.4.91-.14.13-.37.27-.68.23-.33-.04-.83-.15-1.39-.29.11-.35.16-.72.16-1.1,0-.24-.02-.48-.07-.71.19-.03.38-.06.55-.09l.35,1.32c.03.12.12.21.23.24.03,0,.05.01.08.01.09,0,.17-.04.23-.1l.83-.87c.06.14.09.3.09.45Zm-1.17-1.13s.05,0,.08,0c.21-.02.41.04.59.16l-.49.51-.18-.67Zm1.13-.33c-.32-.26-.71-.38-1.11-.34-.06,0-.13.01-.19.02l-1.01-3.78h6.07l.04.12-3.8,3.98Zm6.11,4.34c-1.67,0-3.03-1.38-3.03-3.08,0-1.19.67-2.23,1.65-2.74l.85,2.29c-.1.12-.16.28-.16.45,0,.39.31.7.69.7s.69-.32.69-.7c0-.36-.27-.66-.62-.7l-.84-2.28c.25-.07.5-.1.77-.1,1.67,0,3.03,1.38,3.03,3.08s-1.36,3.08-3.03,3.08Z"/>
  </g>
</svg>