<?xml version="1.0" encoding="UTF-8"?>
<svg id="Layer_2" data-name="Layer 2" xmlns="http://www.w3.org/2000/svg" width="25.24" height="12.22" viewBox="0 0 25.24 12.22">
  <defs>
    <style>
      .cls-1, .cls-2, .cls-3 {
        stroke: #fff;
        stroke-miterlimit: 10;
        stroke-width: .75px;
      }

      .cls-1, .cls-3 {
        fill: none;
      }

      .cls-2 {
        fill: #7e7e84;
      }

      .cls-3 {
        stroke-dasharray: 0 0 .95 .95;
      }
    </style>
  </defs>
  <g id="Camada_1" data-name="Camada 1">
    <g>
      <path class="cls-2" d="m3.12.38C1.61.38.38,1.61.38,3.12c0,2.38,2.75,6.69,2.75,6.69,0,0,2.75-4.36,2.75-6.69C5.87,1.61,4.63.38,3.12.38Zm0,3.67c-.51,0-.92-.41-.92-.92s.41-.9.92-.9.9.41.9.9-.41.92-.9.92Z"/>
      <path class="cls-2" d="m22.12.38c-1.51,0-2.75,1.23-2.75,2.75,0,2.38,2.75,6.69,2.75,6.69,0,0,2.75-4.36,2.75-6.69,0-1.51-1.23-2.75-2.75-2.75Zm0,3.67c-.51,0-.92-.41-.92-.92s.41-.9.92-.9.9.41.9.9-.41.92-.9.92Z"/>
      <g>
        <line class="cls-1" x1="3.37" y1="11.85" x2="3.87" y2="11.85"/>
        <line class="cls-3" x1="4.81" y1="11.85" x2="21.39" y2="11.85"/>
        <line class="cls-1" x1="21.87" y1="11.85" x2="22.37" y2="11.85"/>
      </g>
    </g>
  </g>
</svg>