<?xml version="1.0" encoding="UTF-8"?>
<svg id="Layer_2" data-name="Layer 2" xmlns="http://www.w3.org/2000/svg" width="14" height="14" viewBox="0 0 14 14">
  <defs>
    <style>
      .cls-1 {
        fill: #7e7e84;
      }
    </style>
  </defs>
  <g id="Camada_1" data-name="Camada 1">
    <g>
      <path class="cls-1" d="m7,0C3.13,0,0,3.13,0,7s3.13,7,7,7,7-3.13,7-7S10.87,0,7,0Zm.53,12.92v-.47c0-.29-.24-.53-.53-.53s-.53.24-.53.53v.47c-2.86-.25-5.15-2.54-5.39-5.41h.46c.29,0,.53-.24.53-.53s-.24-.53-.53-.53h-.45C1.34,3.61,3.62,1.33,6.47,1.08v.44c0,.29.24.53.53.53s.53-.24.53-.53v-.44c2.85.25,5.13,2.53,5.39,5.37h-.45c-.29,0-.53.24-.53.53s.24.53.53.53h.46c-.25,2.86-2.53,5.15-5.39,5.41Z"/>
      <path class="cls-1" d="m10.15,3.59l-3.13,3.28s-.01,0-.02,0c-.04,0-.08,0-.11.01l-2.62-1.98c-.17-.13-.42-.1-.55.08-.13.17-.1.42.08.56l2.62,1.98c.03.3.28.54.59.54.33,0,.59-.27.59-.59,0-.02,0-.03,0-.05l3.13-3.28c.15-.16.15-.41-.01-.56-.16-.15-.41-.14-.56.01Z"/>
    </g>
  </g>
</svg>