<?xml version="1.0" encoding="UTF-8"?>
<svg id="Layer_2" data-name="Layer 2" xmlns="http://www.w3.org/2000/svg" width="8.26" height="13.65" viewBox="0 0 8.26 13.65">
  <defs>
    <style>
      .cls-1 {
        fill: #fff;
      }
    </style>
  </defs>
  <g id="Camada_1" data-name="Camada 1">
    <path class="cls-1" d="m4.89,3.36c.11.13.19.38.19.55v3.37l1.38,1.37c.12.12.27.35.33.5l1.43,3.66c.12.32-.04.65-.36.75l-.15.04c-.33.1-.68-.08-.8-.4l-1.19-3.34c-.03-.1-.12-.23-.19-.3l-2.17-2.12c-.12-.12-.21-.35-.21-.52v-2.57c0-.17-.11-.23-.26-.14l-.88.5c-.09.06-.16.18-.17.28l-.22,2.05c-.04.34-.33.59-.65.56-.32-.03-.55-.33-.51-.67l.29-2.4c.02-.17.15-.38.3-.47l2.21-1.41c.14-.09.39-.13.55-.06.43.17.8.42,1.1.76Zm-1.95,4.3L.1,12.39c-.18.29-.1.67.19.85l.02.02c.29.18.67.1.86-.18l2.77-4.41c.06-.08.04-.21-.03-.28l-.74-.74c-.07-.07-.18-.06-.23.03Zm2.49-1.15l1.02.88c.26.22.63.21.82-.02.19-.23.14-.6-.12-.82l-1.72-1.5c-.08-.07-.14-.04-.14.06v1.08c0,.1.06.24.14.3Zm-.93-4.2c.64,0,1.16-.52,1.16-1.16s-.52-1.16-1.16-1.16-1.16.52-1.16,1.16.52,1.16,1.16,1.16Z"/>
  </g>
</svg>