<?xml version="1.0" encoding="UTF-8"?>
<svg id="Layer_2" data-name="Layer 2" xmlns="http://www.w3.org/2000/svg" width="33.59" height="33.59" viewBox="0 0 33.59 33.59">
  <defs>
    <style>
      .cls-1 {
        fill: #fff;
        fill-rule: evenodd;
      }
    </style>
  </defs>
  <g id="Camada_1" data-name="Camada 1">
    <g>
      <path class="cls-1" d="m16.77,0c4.68,0,8.84,1.88,11.94,4.93,3.05,3.05,4.88,7.27,4.88,11.84s-1.83,8.84-4.88,11.99c-3.1,3-7.27,4.83-11.94,4.83s-8.84-1.83-11.84-4.83C1.88,25.61,0,21.45,0,16.77c0-.76.05-1.52.15-2.24.1-1.27.41-2.49.76-3.66.51-1.27,1.22-2.49,2.08-3.61.56-.86,1.22-1.63,1.93-2.34C7.93,1.88,12.2,0,16.77,0h0ZM6.66,12.86h0l-1.57,1.47.1.92.25.15c.25.15.36.25.46.36h1.78c.36,0,.71.05.86.25.2.15.25.36.36.51.1.2.15.36.15.51,0,.36-.05.61-.3.86-.71.81-1.22,1.47-1.68,1.93-.76,1.12-1.27,1.63-1.78,1.83-.71.25-1.12-.1-2.19-.86l-.71-.51-.86.2c.66,2.9,2.13,5.44,4.17,7.47,2.85,2.85,6.76,4.57,11.08,4.57s8.33-1.73,11.18-4.57c2.85-2.85,4.57-6.76,4.57-11.18,0-2.24-.46-4.37-1.32-6.3h-2.39c-.36,0-1.12-1.07-1.83-1.98-.41-.61-.86-1.17-1.22-1.32,0-.1-.05-.1-.15-.1-.76-.25-1.57-.41-2.24-.56-.71-.2-1.22-.25-1.47-.25q-.1,0-.2.05c-.15,0-.41.2-.66.36-.36.25-.86.61-1.12.41l-3.61-1.73c-.31-.31-.66-.66-.81-.86-.51-.61-.86-.86-.86-1.02,0-.2.15-.61.51-1.32l.36-.86c.3,0,.66-.05.97-.05.41-.1.81-.1,1.17-.1.41,0,.81,0,1.22.05-.66-.1-1.37-.15-2.08-.15-4.32,0-8.23,1.83-11.08,4.68-.2.2-.41.41-.56.61.91.05,1.68.25,1.68,1.42v4.83c0,.05-.05.25-.15.3h0Z"/>
      <path class="cls-1" d="m11.18,21.09h0l.66-2.34c0-.15.1-.31.25-.51.2-.1.3-.25.56-.25v-.1c.15,0,.3-.05.56-.05.2.05.36.05.61.25l3.05,1.83c.51.36,1.07.66,1.47.91l.36.25.25-.81c.05-.3.15-.46.36-.66.15-.15.41-.25.61-.3h.05c.25-.1.51,0,.81.05.15.1.41.2.51.46l2.59,3.41c.1.05.15.25.25.3v3.3c0,.25,0,.46-.1.61-.15.25-.25.36-.41.51-.46.25-2.34,1.58-2.69,1.73-.05,0-.15.1-.25.1l-.1.05h-6.76l-4.12-1.02c-.25-.05-.56-.25-.71-.46-.25-.25-.36-.51-.36-.81v-2.79c0-.15.1-.25.1-.46.05-.15.15-.25.25-.41l2.19-2.79Zm1.63-1.98h0l-.71,2.44c0,.1-.1.2-.1.2l-2.24,2.74v.15h-.05v2.9c0,.05.05.15.05.15,0,.1.1.1.2.1l4.07,1.02h6.4l2.59-1.73.1-.1v-3.2l-2.64-3.35q-.05-.1-.15-.1h-.25q-.1.1-.1.2l-.41,1.63c-.1.25-.46.41-.71.36q-.1,0-.15-.1c-.25-.15-.51-.41-.97-.66-.36-.3-.86-.66-1.47-.97l-3.05-1.83-.05-.1q-.1,0-.2.1h-.05v.1s-.1,0-.1.05h0Z"/>
      <path class="cls-1" d="m23.63,17.84h0v-3.1c0-.41.15-.71.41-.96.25-.25.61-.36.97-.36h3.05c.36,0,.66.1.86.36h.1c.25.25.3.56.3.96v2.24c0,.25-.05.51-.25.76-.15.25-.36.41-.61.41l-3.1.97h-.76c-.2-.05-.31-.15-.36-.25-.2-.1-.36-.25-.46-.41-.05-.2-.15-.46-.15-.61h0Zm1.07-3.1h0v3.1c0,.05.05.05.05.05q0,.1.1.2h.25l3.05-.86c.05,0,.05-.1.15-.1v-2.39c0-.15,0-.2-.1-.2v-.1h-3.2c-.05,0-.15,0-.25.1,0,0-.1.05-.1.2h.05Z"/>
    </g>
  </g>
</svg>