<?xml version="1.0" encoding="UTF-8"?><svg id="Layer_2" xmlns="http://www.w3.org/2000/svg" width="325.42" height="324.25" xmlns:xlink="http://www.w3.org/1999/xlink" viewBox="0 0 325.42 324.25"><defs><style>.cls-1{fill:#81789f;}.cls-1,.cls-2,.cls-3,.cls-4{stroke-width:0px;}.cls-2{fill:#21212b;}.cls-5{filter:url(#drop-shadow-1);}.cls-6{stroke-linecap:round;}.cls-6,.cls-7{fill:none;stroke:#21212b;stroke-miterlimit:10;stroke-width:16px;}.cls-3{fill:#ccff29;}.cls-4{fill:#78eec8;}.cls-8{opacity:.56;}</style><filter id="drop-shadow-1" filterUnits="userSpaceOnUse"><feOffset dx="3" dy="3"/><feGaussianBlur result="blur" stdDeviation="3"/><feFlood flood-color="#000" flood-opacity=".75"/><feComposite in2="blur" operator="in"/><feComposite in="SourceGraphic"/></filter></defs><g id="Layer_2-2"><g class="cls-8"><path class="cls-2" d="M59.36,10h180.75c47.08,0,85.3,38.22,85.3,85.3v179.58c0,27.24-22.12,49.36-49.36,49.36H106.8c-53.43,0-96.8-43.38-96.8-96.8V59.36c0-27.24,22.12-49.36,49.36-49.36Z"/></g><path class="cls-3" d="M49.36,0h180.75C277.19,0,315.42,38.22,315.42,85.3v179.58c0,27.24-22.12,49.36-49.36,49.36H96.8C43.38,314.25,0,270.88,0,217.45V49.36C0,22.12,22.12,0,49.36,0Z"/><path class="cls-1" d="M167.48,168.62c-.19-.25-.37-.51-.56-.76.93.04,1.84.63,2.05,1.32-.5-.19-.99-.37-1.49-.56Z"/><path class="cls-1" d="M162.47,164.28c.68.56,1.37,1.11,2.05,1.67.8.64,1.6,1.27,2.4,1.91-1.41-1-2.82-2-4.21-3.02-.14-.1-.17-.37-.24-.56Z"/><path class="cls-4" d="M166.56,162.29c0-.05,0-.11.02-.16.1.03.21.05.31.08.02.04.03.07.04.11-.12-.01-.25-.02-.37-.03Z"/><g class="cls-5"><path class="cls-6" d="M182.25,186.31h-1.14c-22.06,0-40.89,17.15-41.63,39.2-.77,23.05,17.69,41.98,40.57,41.98h81.27"/><path class="cls-6" d="M116.82,133.31v1.14c0,22.06-17.15,40.89-39.2,41.63-23.05.77-41.98-17.69-41.98-40.57,0-27.7,0-65.08,0-92.78"/><circle class="cls-6" cx="187.25" cy="113.39" r="72.92"/><circle class="cls-7" cx="189.99" cy="111.79" r="19.23"/></g></g></svg>