<?xml version="1.0" encoding="UTF-8"?><svg id="Layer_2" xmlns="http://www.w3.org/2000/svg" width="188.12" height="241.96" viewBox="0 0 188.12 241.96"><defs><style>.cls-1{fill:#fff;stroke-width:0px;}</style></defs><g id="Layer_2-2"><g id="Layer_2-2"><g id="Capa_1"><path class="cls-1" d="M94.19,175.26c0,2.34-1.8,4.21-4.06,4.21h-55.86c-14.4,0-26.13,12.14-26.13,27.04s11.73,27.04,26.13,27.04h55.86c2.26,0,4.06,1.86,4.06,4.21s-1.8,4.21-4.06,4.21h-55.86c-18.87,0-34.26-15.92-34.26-35.46s15.39-35.46,34.26-35.46h55.86c2.26,0,4.06,1.86,4.06,4.21Z"/><path class="cls-1" d="M75.48,175.21c-.04-2.82,2.09-5.09,4.81-5.13l67.14-1.02c17.31-.26,31.19-15.07,30.91-32.98-.27-17.91-14.6-32.29-31.9-32.02l-67.14,1.02c-2.72.04-4.92-2.16-4.96-4.98s2.09-5.09,4.81-5.13l67.14-1.02c22.68-.35,41.47,18.51,41.83,41.99s-17.85,42.9-40.53,43.24l-67.14,1.02c-2.72.04-4.92-2.16-4.96-4.98Z"/><path class="cls-1" d="M47.09,178.33c-26.02,0-47.09-21.89-47.09-48.82s1.12-12.23,3.27-17.93c7.18-18.75,24.35-30.81,43.82-30.81,26.02,0,47.09,21.89,47.09,48.82s-21.15,48.74-47.17,48.74h.08ZM47.09,92.34c-14.85,0-28.02,9.25-33.45,23.54-1.68,4.38-2.55,9-2.55,13.71,0,20.49,16.12,37.25,35.92,37.25s36-16.69,36-37.17-16.12-37.25-35.92-37.25v-.08Z"/><ellipse class="cls-1" cx="62.36" cy="130.38" rx="10.38" ry="10.74"/><path class="cls-1" d="M130.11,97.56c-26.02,0-47.09-21.89-47.09-48.82s1.12-12.23,3.27-17.93C93.47,12.06,110.63,0,130.11,0c26.02,0,47.09,21.89,47.09,48.82s-21.15,48.74-47.17,48.74h.08ZM130.11,11.56c-14.85,0-28.02,9.25-33.45,23.54-1.68,4.38-2.55,9-2.55,13.71,0,20.49,16.12,37.25,35.92,37.25s36-16.69,36-37.17-16.12-37.25-35.92-37.25v-.08Z"/><ellipse class="cls-1" cx="139.74" cy="56.79" rx="10.38" ry="10.74"/></g></g></g></svg>