<?xml version="1.0" encoding="UTF-8"?><svg id="Layer_2" xmlns="http://www.w3.org/2000/svg" width="284.42" height="85.64" viewBox="0 0 284.42 85.64"><defs><style>.cls-1{fill:#cf3;font-family:Roboto-LightItalic, Roboto;font-size:18.5px;font-style:italic;font-weight:300;opacity:.6;}.cls-2{stroke-width:2px;}.cls-2,.cls-3{fill:none;stroke:#ccff29;stroke-miterlimit:10;}.cls-4{letter-spacing:0em;}.cls-3{stroke-linecap:round;stroke-width:6px;}</style></defs><g id="Layer_2-2"><text class="cls-1" transform="translate(128.23 80.62)"><tspan x="0" y="0">geospatial se</tspan><tspan class="cls-4" x="105.25" y="0">r</tspan><tspan x="111.54" y="0">vices</tspan></text><circle class="cls-2" cx="73.89" cy="24.84" r="3.7"/><path class="cls-3" d="M141.36,3.26c-7.05,0-10.37-.26-17.43-.26-11.42,0-20.68,9.26-20.68,20.68s9.26,20.68,20.68,20.68c7.05,0,10.37.26,17.43.26"/><circle class="cls-3" cx="169.29" cy="24.62" r="20.63"/><path class="cls-3" d="M240.18,45.61v-21.1c0-11.39-9.23-20.62-20.62-20.62s-20.62,9.23-20.62,20.62v21.1"/><path class="cls-3" d="M281.42,45.61v-21.1c0-11.39-9.23-20.62-20.62-20.62s-20.62,9.23-20.62,20.62v21.1"/><circle class="cls-3" cx="73.83" cy="23.63" r="20.63"/><path class="cls-3" d="M72.44,44.27h-.94c-9.58,0-17.34,7.76-17.34,17.34s7.76,17.34,17.34,17.34h35.49"/><path class="cls-3" d="M3,3.54v21.03c0,11.35,9.2,20.55,20.55,20.55s20.55-9.2,20.55-20.55V3.54"/><line class="cls-3" x1="123.68" y1="24.33" x2="133.75" y2="24.33"/></g></svg>