<?xml version="1.0" encoding="UTF-8"?>
<svg id="Layer_2" data-name="Layer 2" xmlns="http://www.w3.org/2000/svg" version="1.1" viewBox="0 0 393.9 182">
  <defs>
    <style>
      .cls-1 {
        fill: #fff;
        stroke-width: 0px;
      }
    </style>
  </defs>
  <path class="cls-1" d="M205.8,47.3c0,1.5-1.1,2.6-2.6,2.6h-34c-8.8,0-15.9,7.7-15.9,16.9s7.2,16.9,15.9,16.9h34c1.4,0,2.6,1.1,2.6,2.6s-1.1,2.6-2.6,2.6h-34c-11.5,0-20.8-9.9-20.8-22.3s9.4-22.3,20.8-22.3h34c1.4,0,2.6,1.1,2.6,2.6h0v.4Z"/>
  <path class="cls-1" d="M205.8,86.6c0,1.5-1.1,2.6-2.6,2.6h-34c-8.8,0-15.9,7.7-15.9,16.9s7.2,16.9,15.9,16.9h34c1.4,0,2.6,1.1,2.6,2.6s-1.1,2.6-2.6,2.6h-34c-11.5,0-20.8-9.9-20.8-22.3s9.3-22.3,20.8-22.3h34c1.4,0,2.6,1.1,2.6,2.6h0v.4Z"/>
  <ellipse class="cls-1" cx="131.5" cy="84.4" rx="9.9" ry="10.9"/>
  <path class="cls-1" d="M4.2,40.6c2.4,0,4.3,2.5,4.3,5.5v76.7c0,19.9,12.3,35.9,27.4,35.9s27.4-16,27.4-35.9V8.7c0-3.1,1.9-5.5,4.3-5.5s4.3,2.5,4.3,5.5v114.1c0,26-16.2,47-35.9,47S0,148.8,0,122.9V46.1c0-3.1,1.9-5.5,4.3-5.5h-.2,0Z"/>
  <ellipse class="cls-1" cx="265.1" cy="83.7" rx="9.9" ry="10.9"/>
  <path class="cls-1" d="M111.3,128.6c-21.8,0-39.4-19.1-39.4-42.8s1-10.7,2.7-15.7c6.1-16.4,20.3-26.9,36.7-26.9s39.4,19.1,39.4,42.8-17.6,42.8-39.4,42.8h0s0-.2,0-.2ZM112.4,49.9c-15.9,0-29.7,8.8-35.6,22.7-1.8,4.2-2.6,8.6-2.6,13.3,0,19.8,17.1,36,38.2,36s38.2-16.2,38.2-36-17.1-36-38.2-36h0Z"/>
  <path class="cls-1" d="M245,129.1c-21.8,0-39.4-19.1-39.4-42.8s1-10.7,2.7-15.7c6.1-16.4,20.3-26.9,36.7-26.9s39.4,19.1,39.4,42.8-17.6,42.8-39.4,42.8h0v-.2ZM246.1,50.4c-15.9,0-29.7,8.8-35.6,22.7-1.8,4.2-2.6,8.6-2.6,13.3,0,19.8,17.1,36,38.2,36s38.2-16.2,38.2-36-17.1-36-38.2-36h0Z"/>
  <path class="cls-1" d="M386.5,128.6c-1.9,0-3.3-1.7-3.3-3.8v-50.1c0-13-9.7-23.4-21.3-23.4s-21.3,10.6-21.3,23.4v50.1c0,2.1-1.4,3.8-3.3,3.8s-3.3-1.7-3.3-3.8v-50.1c0-17,12.6-30.7,28.2-30.7s28.2,13.9,28.2,30.7v50.1c0,2.1-1.4,3.8-3.3,3.8h-.6Z"/>
  <path class="cls-1" d="M337,128.6c-1.9,0-3.3-1.7-3.3-3.8v-50.1c0-13-9.7-23.4-21.3-23.4s-21.3,10.6-21.3,23.4v50.1c0,2.1-1.4,3.8-3.3,3.8s-3.3-1.7-3.3-3.8v-50.1c0-17,12.6-30.7,28.2-30.7s28.2,13.7,28.2,30.7v50.1c0,2.1-1.4,3.8-3.3,3.8h-.6Z"/>
  <path class="cls-1" d="M138.3,131.7c0,1.6-1.2,2.8-2.7,2.8h-35.5c-9.2,0-16.6,8.2-16.6,17.9s7.5,17.9,16.6,17.9h35.5c1.5,0,2.7,1.2,2.7,2.8s-1.2,2.8-2.7,2.8h-35.5c-12,0-21.7-10.6-21.7-23.7s9.7-23.7,21.7-23.7h35.5c1.5,0,2.7,1.2,2.7,2.8h0v.4Z"/>
</svg>